<svg width="25" height="24" viewBox="0 0 25 24" fill="none" xmlns="http://www.w3.org/2000/svg">
<path d="M11.625 4H4.625C4.09457 4 3.58586 4.21071 3.21079 4.58579C2.83571 4.96086 2.625 5.46957 2.625 6V20C2.625 20.5304 2.83571 21.0391 3.21079 21.4142C3.58586 21.7893 4.09457 22 4.625 22H18.625C19.1554 22 19.6641 21.7893 20.0392 21.4142C20.4143 21.0391 20.625 20.5304 20.625 20V13" stroke="#624DE3" stroke-width="2" stroke-linecap="round" stroke-linejoin="round"/>
<path d="M19.125 2.49998C19.5228 2.10216 20.0624 1.87866 20.625 1.87866C21.1876 1.87866 21.7272 2.10216 22.125 2.49998C22.5228 2.89781 22.7463 3.43737 22.7463 3.99998C22.7463 4.56259 22.5228 5.10216 22.125 5.49998L12.625 15L8.625 16L9.625 12L19.125 2.49998Z" stroke="#624DE3" stroke-width="2" stroke-linecap="round" stroke-linejoin="round"/>
</svg>
