<svg width="25" height="24" viewBox="0 0 25 24" fill="none" xmlns="http://www.w3.org/2000/svg">
<path d="M3.625 6H5.625H21.625" stroke="#A30D11" stroke-width="2" stroke-linecap="round" stroke-linejoin="round"/>
<path d="M8.625 6V4C8.625 3.46957 8.83571 2.96086 9.21079 2.58579C9.58586 2.21071 10.0946 2 10.625 2H14.625C15.1554 2 15.6641 2.21071 16.0392 2.58579C16.4143 2.96086 16.625 3.46957 16.625 4V6M19.625 6V20C19.625 20.5304 19.4143 21.0391 19.0392 21.4142C18.6641 21.7893 18.1554 22 17.625 22H7.625C7.09457 22 6.58586 21.7893 6.21079 21.4142C5.83571 21.0391 5.625 20.5304 5.625 20V6H19.625Z" stroke="#A30D11" stroke-width="2" stroke-linecap="round" stroke-linejoin="round"/>
<path d="M10.625 11V17" stroke="#A30D11" stroke-width="2" stroke-linecap="round" stroke-linejoin="round"/>
<path d="M14.625 11V17" stroke="#A30D11" stroke-width="2" stroke-linecap="round" stroke-linejoin="round"/>
</svg>
